<?xml version="1.0" encoding="utf-8"?>
<!-- Generator: Adobe Illustrator 17.0.2, SVG Export Plug-In . SVG Version: 6.00 Build 0)  -->
<!DOCTYPE svg PUBLIC "-//W3C//DTD SVG 1.1//EN" "http://www.w3.org/Graphics/SVG/1.1/DTD/svg11.dtd">
<svg version="1.1" id="Layer_2" xmlns="http://www.w3.org/2000/svg" xmlns:xlink="http://www.w3.org/1999/xlink" x="0px" y="0px"
	 width="174.118px" height="194.626px" viewBox="0 0 174.118 194.626" enable-background="new 0 0 174.118 194.626"
	 xml:space="preserve">
<path fill="none" d="M38.899,36.703c0.123,0,0.246,0,0.368,0"/>
<g>
	<path fill="#FFFFFF" d="M94.628,133.706c0-30.021-25.654-33.842-33.023-33.842H40.591v66.591h14.737
		C78.799,166.456,94.628,159.087,94.628,133.706z"/>
	<path fill="#FFFFFF" d="M88.978,0c22.699,6.296,33.487,20.671,33.487,45.555c0,19.377-10.917,32.204-28.11,39.845
		c22.925,9.006,35.751,24.017,35.751,49.398c0,32.75-19.649,51.581-51.035,57.039c-5.436,0.925-12.49,1.311-19.459,1.448
		c5.288,0.876,10.716,1.341,16.254,1.341c54.262,0,98.251-43.768,98.251-97.759C174.118,47.302,137.037,6.381,88.978,0z"/>
	<path fill="#FFFFFF" d="M86.986,46.646c0-22.652-20.468-24.289-29.201-24.289H40.591v50.762h14.192
		C69.792,73.119,86.986,68.752,86.986,46.646z"/>
	<polygon fill="#FFFFFF" points="9.522,33.877 5.012,23.08 0.426,33.845 3.614,32.504 3.179,156.201 0,154.837 4.51,165.634 
		9.096,154.869 5.908,156.211 6.343,32.513 	"/>
</g>
</svg>
